<svg width="15" height="14" viewBox="0 0 15 14" fill="none" xmlns="http://www.w3.org/2000/svg">
<g clip-path="url(#clip0_771_10633)">
<path d="M12.3758 5.36274L6.60037 2.0625L0.824951 5.36274L6.60037 8.66298L8.25049 7.83792" stroke="#D46E38" stroke-width="0.82506" stroke-linecap="round" stroke-linejoin="round"/>
<path d="M0.824951 7.4248L6.60037 10.725L8.25049 9.89998" stroke="#D46E38" stroke-width="0.82506" stroke-linecap="round" stroke-linejoin="round"/>
</g>
<g clip-path="url(#clip1_771_10633)">
<path d="M9.8418 7.47363H12.298L10.8243 9.43863C11.0632 9.43865 11.2985 9.49673 11.5099 9.60788C11.7214 9.71903 11.9026 9.87991 12.0381 10.0767C12.1735 10.2734 12.2591 10.5002 12.2875 10.7374C12.3159 10.9745 12.2862 11.2151 12.2009 11.4382C12.1157 11.6614 11.9775 11.8605 11.7982 12.0184C11.619 12.1762 11.404 12.2882 11.1719 12.3445C10.9397 12.4009 10.6974 12.4 10.4657 12.3419C10.234 12.2837 10.0199 12.1702 9.8418 12.0109" stroke="#D46E38" stroke-width="0.83" stroke-linecap="round" stroke-linejoin="round"/>
</g>
<defs>
<clipPath id="clip0_771_10633">
<rect width="13.201" height="13.201" fill="white"/>
</clipPath>
<clipPath id="clip1_771_10633">
<rect width="7.86" height="7.86" fill="white" transform="translate(7.13989 6)"/>
</clipPath>
</defs>
</svg>
