<svg width="15" height="14" viewBox="0 0 15 14" fill="none" xmlns="http://www.w3.org/2000/svg">
<g clip-path="url(#clip0_771_10664)">
<path d="M12.3758 5.36274L6.60037 2.0625L0.824951 5.36274L6.60037 8.66298L8.25049 7.83792" stroke="#D46E38" stroke-width="0.82506" stroke-linecap="round" stroke-linejoin="round"/>
<path d="M0.824951 7.4248L6.60037 10.725L8.25049 9.89998" stroke="#D46E38" stroke-width="0.82506" stroke-linecap="round" stroke-linejoin="round"/>
</g>
<g clip-path="url(#clip1_771_10664)">
<path d="M9.8418 12.0109C10.0527 12.1995 10.3134 12.3234 10.5927 12.3679C10.8721 12.4123 11.1584 12.3754 11.4174 12.2615C11.6763 12.1477 11.8971 11.9617 12.0532 11.7258C12.2093 11.4899 12.2943 11.214 12.2979 10.9311C12.3015 10.6483 12.2236 10.3703 12.0735 10.1305C11.9234 9.89075 11.7075 9.69921 11.4515 9.57881C11.1955 9.4584 10.9102 9.41422 10.6298 9.45154C10.3494 9.48886 10.0856 9.6061 9.87004 9.78926L10.333 7.47363H12.298" stroke="#D46E38" stroke-width="0.83" stroke-linecap="round" stroke-linejoin="round"/>
</g>
<defs>
<clipPath id="clip0_771_10664">
<rect width="13.201" height="13.201" fill="white"/>
</clipPath>
<clipPath id="clip1_771_10664">
<rect width="7.86" height="7.86" fill="white" transform="translate(7.13989 6)"/>
</clipPath>
</defs>
</svg>
