<svg width="15" height="14" viewBox="0 0 15 14" fill="none" xmlns="http://www.w3.org/2000/svg">
<g clip-path="url(#clip0_771_10599)">
<path d="M12.3758 5.36274L6.60037 2.0625L0.824951 5.36274L6.60037 8.66298L8.25049 7.83792" stroke="#D46E38" stroke-width="0.82506" stroke-linecap="round" stroke-linejoin="round"/>
<path d="M0.824951 7.4248L6.60037 10.725L8.25049 9.89998" stroke="#D46E38" stroke-width="0.82506" stroke-linecap="round" stroke-linejoin="round"/>
</g>
<g clip-path="url(#clip1_771_10599)">
<path d="M9.88764 8.21031C9.95702 8.05143 10.0592 7.90904 10.1876 7.7925C10.316 7.67596 10.4675 7.58791 10.6324 7.53416C10.7972 7.4804 10.9715 7.46216 11.1439 7.48061C11.3163 7.49907 11.4828 7.55382 11.6325 7.64125C11.7822 7.72868 11.9117 7.84682 12.0125 7.98789C12.1133 8.12897 12.183 8.28978 12.2172 8.45975C12.2514 8.62971 12.2491 8.80499 12.2107 8.97404C12.1723 9.1431 12.0985 9.3021 11.9942 9.44059L9.7854 12.3859H12.2417" stroke="#D46E38" stroke-width="0.83" stroke-linecap="round" stroke-linejoin="round"/>
</g>
<defs>
<clipPath id="clip0_771_10599">
<rect width="13.201" height="13.201" fill="white"/>
</clipPath>
<clipPath id="clip1_771_10599">
<rect width="7.86" height="7.86" fill="white" transform="translate(7.0835 6)"/>
</clipPath>
</defs>
</svg>
